<svg width="20" height="20" viewBox="0 0 20 20" fill="none" xmlns="http://www.w3.org/2000/svg">
<path d="M15.625 7.5H1.25C0.556641 7.5 0 8.05859 0 8.75V16.25C0 18.3203 1.67969 20 3.75 20H11.25C13.3203 20 15 18.3203 15 16.25H15.625C18.0371 16.25 20 14.2871 20 11.875C20 9.46289 18.0391 7.5 15.625 7.5ZM15.625 13.75H15V10H15.625C16.6602 10 17.5 10.8398 17.5 11.875C17.5 12.9102 16.6602 13.75 15.625 13.75ZM4.21484 3.93359C4.69922 4.18359 5 4.74219 5 5.3125C5 5.83008 5.41992 6.2457 5.9375 6.2457C6.45508 6.2457 6.875 5.78516 6.875 5.30078C6.875 4.07656 6.21758 2.93203 5.15977 2.31445C4.67578 2.03242 4.375 1.50898 4.375 0.948437C4.375 0.430859 3.95508 0.00546875 3.4375 0.00546875C2.91992 0.00546875 2.5 0.430859 2.5 0.948437C2.5 2.17305 3.15742 3.31719 4.21484 3.93359ZM8.58984 3.93359C9.07422 4.18359 9.375 4.74219 9.375 5.3125C9.375 5.83008 9.79492 6.24453 10.3125 6.24453C10.8301 6.24453 11.25 5.78516 11.25 5.30078C11.25 4.07656 10.5926 2.93203 9.53477 2.31445C9.05078 2.03242 8.75 1.50898 8.75 0.948437C8.75 0.430859 8.33008 0.00390625 7.8125 0.00390625C7.29492 0.00390625 6.875 0.430859 6.875 0.948437C6.875 2.17305 7.53125 3.31719 8.58984 3.93359Z" fill="#FF9000"/>
</svg>
