<svg width="20" height="20" viewBox="0 0 20 20" fill="none" xmlns="http://www.w3.org/2000/svg">
<g clip-path="url(#clip0_134_2693)">
<path d="M20 6.59764C20 6.66662 19.9991 6.73037 19.997 6.79936C19.3364 6.44264 18.6099 6.26185 17.8892 6.26185C14.6607 6.26185 13.7681 9.15912 13.7681 10.379C13.7681 11.4353 14.1557 12.5052 14.9255 13.3576C14.163 13.6165 13.3634 13.7481 12.5575 13.7481L9.15206 13.7482L7.56652 15.3299C7.32808 15.5683 7.21804 15.8771 7.21804 16.1959C7.21804 16.742 7.50101 16.8638 7.50101 17.6424C7.50389 18.9609 6.42967 20 5.14452 20C4.53397 20 3.92928 19.7635 3.47577 19.3047C3.0246 18.857 2.81874 18.2769 2.81874 17.693C2.81874 17.4997 2.8412 17.3061 2.88495 17.1168C2.69581 17.1601 2.50241 17.1824 2.30995 17.1824C0.663464 17.1824 0.000183105 15.7512 0.000183105 14.8582C0.000183105 13.5524 1.06073 12.5012 2.35917 12.5012C3.10018 12.5012 3.25643 12.7832 3.80292 12.7832C4.12163 12.7832 4.42948 12.6734 4.66776 12.435L6.25252 10.8541L6.25389 7.46482C6.25389 4.99998 7.33944 3.28513 8.72147 1.90232C10.0156 0.610913 11.7055 -0.03479 13.3972 -0.03479C15.089 -0.03479 16.7875 0.610913 18.0808 1.90232C19.3711 3.22263 20 4.91013 20 6.59764Z" fill="#555555"/>
</g>
<defs>
<clipPath id="clip0_134_2693">
<rect width="20" height="20" fill="white"/>
</clipPath>
</defs>
</svg>
