<svg width="22" height="22" viewBox="0 0 22 22" fill="none" xmlns="http://www.w3.org/2000/svg">
<path d="M11.3125 8.9082C10.1992 8.9082 9.30859 9.79883 9.30859 10.875C9.30859 11.9883 10.1992 12.8789 11.3125 12.8789C12.3887 12.8789 13.2793 11.9883 13.2793 10.875C13.2793 9.79883 12.3887 8.9082 11.3125 8.9082ZM15.9141 7.38672C15.7285 6.86719 15.3203 6.45898 14.8008 6.27344C14.0215 5.93945 12.166 6.01367 11.3125 6.01367C10.4219 6.01367 8.56641 5.93945 7.78711 6.27344C7.26758 6.45898 6.85938 6.86719 6.67383 7.38672C6.37695 8.16602 6.41406 10.0215 6.41406 10.875C6.41406 11.7656 6.37695 13.6211 6.67383 14.4004C6.85938 14.9199 7.26758 15.3281 7.78711 15.5137C8.56641 15.8477 10.4219 15.7734 11.3125 15.7734C12.166 15.7734 14.0215 15.8477 14.8008 15.5137C15.3203 15.3281 15.7285 14.9199 15.9141 14.4004C16.248 13.6211 16.1738 11.7656 16.1738 10.875C16.1738 10.0215 16.248 8.16602 15.9141 7.38672ZM11.3125 13.918C9.60547 13.918 8.26953 12.582 8.26953 10.875C8.26953 9.20508 9.60547 7.83203 11.3125 7.83203C12.9824 7.83203 14.3555 9.20508 14.3555 10.875V10.9121C14.3555 12.582 12.9824 13.9551 11.3125 13.9551V13.918ZM14.4668 8.42578C14.0586 8.42578 13.7617 8.12891 13.7617 7.7207C13.7617 7.3125 14.0586 7.01562 14.4668 7.01562C14.8379 7.01562 15.1719 7.3125 15.1719 7.7207C15.1719 8.12891 14.8379 8.42578 14.4668 8.42578ZM17.8438 2.5625H4.78125C3.7793 2.5625 3 3.37891 3 4.34375V17.4062C3 18.4082 3.7793 19.1875 4.78125 19.1875H17.8438C18.8086 19.1875 19.625 18.4082 19.625 17.4062V4.34375C19.625 3.37891 18.8086 2.5625 17.8438 2.5625ZM17.1758 13.3242C17.1387 14.2891 16.916 15.1426 16.248 15.8105C15.543 16.5156 14.6895 16.7383 13.7617 16.7754C12.7598 16.8496 9.82812 16.8496 8.86328 16.7754C7.89844 16.7383 7.04492 16.5156 6.37695 15.8105C5.67188 15.1426 5.44922 14.2891 5.41211 13.3242C5.33789 12.3594 5.33789 9.42773 5.41211 8.42578C5.44922 7.49805 5.67188 6.64453 6.37695 5.93945C7.04492 5.27148 7.89844 5.04883 8.86328 5.01172C9.82812 4.9375 12.7598 4.9375 13.7617 5.01172C14.6895 5.04883 15.543 5.27148 16.248 5.97656C16.916 6.64453 17.1387 7.49805 17.1758 8.46289C17.25 9.42773 17.25 12.3594 17.1758 13.3242Z" fill="#999999"/>
</svg>
