<svg width="11" height="18" viewBox="0 0 11 18" fill="none" xmlns="http://www.w3.org/2000/svg">
<path d="M4.82109 15.9425C3.32578 14.1494 0 9.80355 0 7.3625C0 4.40084 2.4624 2 5.5 2C8.53646 2 11 4.40084 11 7.3625C11 9.80355 7.64844 14.1494 6.17891 15.9425C5.82656 16.3698 5.17344 16.3698 4.82109 15.9425ZM5.5 9.15C6.5112 9.15 7.33333 8.34842 7.33333 7.3625C7.33333 6.37658 6.5112 5.575 5.5 5.575C4.4888 5.575 3.66667 6.37658 3.66667 7.3625C3.66667 8.34842 4.4888 9.15 5.5 9.15Z" fill="#7B7B7B"/>
</svg>
