<svg width="18" height="21" viewBox="0 0 18 21" fill="none" xmlns="http://www.w3.org/2000/svg">
<g clip-path="url(#clip0_134_2685)">
<path d="M8.90358 6.03203C9.02813 6.54314 9.03215 7.0786 8.92367 7.59378C8.81117 8.0765 8.58215 8.59573 8.26072 9.00949C7.67813 9.67881 6.9509 10.1047 6.07099 10.3076V19.1467C6.07099 19.5767 5.9384 19.9904 5.63706 20.2947C5.33572 20.5989 4.9259 20.7693 4.46384 20.7693C4.07411 20.7693 3.66509 20.5989 3.36335 20.2947C3.06201 19.9904 2.8567 19.5767 2.8567 19.1467V10.3076C2.0475 10.1453 1.28411 9.69098 0.735271 9.02166C0.409422 8.6079 0.181971 8.12518 0.0705161 7.60595C-0.0409393 7.08671 -0.0334058 6.55126 0.092534 6.03608L1.30621 0.505054C1.34036 0.348798 1.43076 0.210836 1.55974 0.117659C1.68831 0.0244403 1.84701 -0.0174105 2.00451 0.000125687C2.16241 0.0174713 2.30866 0.0934413 2.41474 0.213351C2.52081 0.333221 2.57866 0.488422 2.57786 0.649059V6.49041H3.27576L3.96241 0.483149C3.97849 0.350298 4.04197 0.228036 4.14241 0.13932C4.23884 0.0506453 4.36741 0.00164687 4.46384 0.00164687C4.63259 0.00164687 4.76116 0.0506453 4.85759 0.13932C4.95804 0.228036 4.98617 0.350298 5.0384 0.483149L5.72545 6.49041H6.39242V0.649059C6.39242 0.489639 6.48483 0.335411 6.55313 0.215704C6.69376 0.0959968 6.8384 0.019248 6.99509 0.000125687C7.15179 -0.0172686 7.27634 0.0251299 7.44108 0.119119C7.56965 0.213108 7.65804 0.352002 7.6942 0.50911L8.90358 6.03203ZM18 19.1467C18 19.5767 17.8313 19.9904 17.5299 20.2947C17.2286 20.5989 16.8188 20.7693 16.3929 20.7693C15.967 20.7693 15.5572 20.5989 15.2558 20.2947C14.9545 19.9904 14.7857 19.5767 14.7857 19.1467V14.2789H14.1107C13.7732 14.2789 13.4357 14.2099 13.1223 14.0801C12.813 13.9462 12.5277 13.7556 12.2866 13.5122C12.0496 13.2688 11.8607 12.9808 11.696 12.6644C11.6036 12.348 11.5393 12.0072 11.5393 11.6665L11.5353 7.05021C11.5714 5.55336 12.0174 4.08897 12.8491 2.85092C13.6808 1.61085 14.858 0.651087 16.2362 0.0949016C16.3969 0.0162868 16.642 -0.0129687 16.8509 0.00971929C17.0598 0.0323991 17.2607 0.1063 17.4335 0.224993C17.6063 0.343686 17.7509 0.503431 17.8473 0.690841C17.9478 0.877845 17.9638 1.08635 18 1.2981V19.1467Z" fill="#555555"/>
</g>
<defs>
<clipPath id="clip0_134_2685">
<rect width="18" height="20.7692" fill="white"/>
</clipPath>
</defs>
</svg>
