<svg width="20" height="20" viewBox="0 0 20 20" fill="none" xmlns="http://www.w3.org/2000/svg">
<path d="M19.3203 9.99609C16.7567 9.96404 14.6875 7.88124 14.6875 5.31249C12.1195 5.31249 10.0352 3.24335 10.0078 0.679682C9.00549 0.528628 7.98439 0.688846 7.08713 1.15117L4.55861 2.43789C3.6465 2.90468 2.90471 3.64648 2.43791 4.55859L1.15627 7.07812C0.689473 7.99374 0.52463 9.02812 0.684786 10.0445L1.12893 12.8367C1.28916 13.8484 1.76525 14.782 2.48869 15.5055L4.49494 17.5129C5.21877 18.2383 6.14455 18.7109 7.15627 18.8711L9.96252 19.3152C10.9742 19.4754 12.0043 19.3106 12.9153 18.8484L15.4469 17.5574C16.3578 17.0949 17.0996 16.3535 17.5617 15.4426L18.8481 12.9203C19.3086 12.0195 19.4727 10.9922 19.3203 9.99609ZM6.87502 14.3398C6.18674 14.3398 5.62502 13.7785 5.62502 13.125C5.62502 12.4715 6.18674 11.9101 6.87502 11.9101C7.5633 11.9101 8.12502 12.4715 8.12502 13.125C8.12502 13.7785 7.56252 14.3398 6.87502 14.3398ZM8.12502 8.12499C7.43674 8.12499 6.87502 7.56367 6.87502 6.91015C6.87502 6.25663 7.43674 5.69531 8.12502 5.69531C8.8133 5.69531 9.37502 6.25663 9.37502 6.91015C9.37502 7.56367 8.81252 8.12499 8.12502 8.12499ZM14.375 13.0898C13.6867 13.0898 13.125 12.5285 13.125 11.875C13.125 11.2215 13.6867 10.6601 14.375 10.6601C15.0633 10.6601 15.625 11.2215 15.625 11.875C15.625 12.5285 15.0625 13.0898 14.375 13.0898Z" fill="#555555"/>
</svg>
