<svg width="11" height="10" viewBox="0 0 11 10" fill="none" xmlns="http://www.w3.org/2000/svg">
<path d="M10.2857 4.03906C10.2857 3.87165 10.1071 3.80469 9.97321 3.78237L7.17188 3.375L5.91629 0.835937C5.86607 0.72991 5.77121 0.607143 5.64286 0.607143C5.51451 0.607143 5.41964 0.72991 5.36942 0.835937L4.11384 3.375L1.3125 3.78237C1.17299 3.80469 1 3.87165 1 4.03906C1 4.13951 1.07254 4.23437 1.13951 4.30692L3.17076 6.28237L2.69085 9.07254C2.68527 9.11161 2.67969 9.14509 2.67969 9.18415C2.67969 9.32924 2.75223 9.46317 2.91406 9.46317C2.99219 9.46317 3.06473 9.43527 3.13728 9.39621L5.64286 8.07924L8.14844 9.39621C8.2154 9.43527 8.29353 9.46317 8.37165 9.46317C8.53348 9.46317 8.60045 9.32924 8.60045 9.18415C8.60045 9.14509 8.60045 9.11161 8.59487 9.07254L8.11496 6.28237L10.1406 4.30692C10.2132 4.23437 10.2857 4.13951 10.2857 4.03906Z" fill="#FB9209"/>
</svg>
