<svg width="12" height="14" viewBox="0 0 12 14" fill="none" xmlns="http://www.w3.org/2000/svg">
<g clip-path="url(#clip0_128_2586)">
<path d="M7.28571 0C7.75982 0 8.14286 0.377842 8.14286 0.84375C8.14286 1.30966 7.75982 1.6875 7.28571 1.6875H6.85714V2.59585C7.86161 2.74746 8.77768 3.16406 9.52768 3.77051L10.1089 3.20098C10.4437 2.87139 10.9848 2.87139 11.3196 3.20098C11.6545 3.53057 11.6545 4.06318 11.3196 4.39277L10.6741 5.03086C11.242 5.88779 11.5714 6.91348 11.5714 8.01562C11.5714 11.0452 9.07768 13.5 6 13.5C2.92232 13.5 0.42857 11.0452 0.42857 8.01562C0.42857 5.27344 2.47286 3.00059 5.14286 2.59585V1.6875H4.71428C4.24018 1.6875 3.85714 1.30966 3.85714 0.84375C3.85714 0.377842 4.24018 0 4.71428 0H7.28571ZM6.64286 5.0625C6.64286 4.71182 6.35625 4.42969 6 4.42969C5.64375 4.42969 5.35714 4.71182 5.35714 5.0625V8.4375C5.35714 8.78818 5.64375 9.07031 6 9.07031C6.35625 9.07031 6.64286 8.78818 6.64286 8.4375V5.0625Z" fill="#7B7B7B"/>
</g>
<defs>
<clipPath id="clip0_128_2586">
<rect width="12" height="13.5" fill="white"/>
</clipPath>
</defs>
</svg>
