<svg width="21" height="15" viewBox="0 0 21 15" fill="none" xmlns="http://www.w3.org/2000/svg">
<path d="M20.373 3.01367C20.1504 2.12305 19.4453 1.41797 18.5918 1.19531C16.9961 0.75 10.6875 0.75 10.6875 0.75C10.6875 0.75 4.3418 0.75 2.74609 1.19531C1.89258 1.41797 1.1875 2.12305 0.964844 3.01367C0.519531 4.57227 0.519531 7.91211 0.519531 7.91211C0.519531 7.91211 0.519531 11.2148 0.964844 12.8105C1.1875 13.7012 1.89258 14.3691 2.74609 14.5918C4.3418 15 10.6875 15 10.6875 15C10.6875 15 16.9961 15 18.5918 14.5918C19.4453 14.3691 20.1504 13.7012 20.373 12.8105C20.8184 11.2148 20.8184 7.91211 20.8184 7.91211C20.8184 7.91211 20.8184 4.57227 20.373 3.01367ZM8.60938 10.918V4.90625L13.8789 7.91211L8.60938 10.918Z" fill="#999999"/>
</svg>
